<?xml version="1.0" encoding="utf-8"?>
<!-- Generator: Adobe Illustrator 23.0.3, SVG Export Plug-In . SVG Version: 6.00 Build 0)  -->
<!DOCTYPE svg PUBLIC "-//W3C//DTD SVG 1.1//EN" "http://www.w3.org/Graphics/SVG/1.1/DTD/svg11.dtd" [
	<!ENTITY ns_extend "http://ns.adobe.com/Extensibility/1.0/">
	<!ENTITY ns_ai "http://ns.adobe.com/AdobeIllustrator/10.0/">
	<!ENTITY ns_graphs "http://ns.adobe.com/Graphs/1.0/">
	<!ENTITY ns_vars "http://ns.adobe.com/Variables/1.0/">
	<!ENTITY ns_imrep "http://ns.adobe.com/ImageReplacement/1.0/">
	<!ENTITY ns_sfw "http://ns.adobe.com/SaveForWeb/1.0/">
	<!ENTITY ns_custom "http://ns.adobe.com/GenericCustomNamespace/1.0/">
	<!ENTITY ns_adobe_xpath "http://ns.adobe.com/XPath/1.0/">
]>
<svg version="1.1" id="Layer_1" xmlns:x="&ns_extend;" xmlns:i="&ns_ai;" xmlns:graph="&ns_graphs;"
	 xmlns="http://www.w3.org/2000/svg" xmlns:xlink="http://www.w3.org/1999/xlink" x="0px" y="0px" viewBox="0 0 100 51"
	 style="enable-background:new 0 0 100 51;" xml:space="preserve">
<style type="text/css">
	.st0{fill:#FFFFFF;}
</style>
<metadata><?xpacket begin="﻿" id="W5M0MpCehiHzreSzNTczkc9d"?>
<x:xmpmeta xmlns:x="adobe:ns:meta/" x:xmptk="Adobe XMP Core 5.6-c145 79.163499, 2018/08/13-16:40:22        ">
   <rdf:RDF xmlns:rdf="http://www.w3.org/1999/02/22-rdf-syntax-ns#">
      <rdf:Description rdf:about=""
            xmlns:xmp="http://ns.adobe.com/xap/1.0/"
            xmlns:xmpGImg="http://ns.adobe.com/xap/1.0/g/img/"
            xmlns:xmpTPg="http://ns.adobe.com/xap/1.0/t/pg/"
            xmlns:stDim="http://ns.adobe.com/xap/1.0/sType/Dimensions#"
            xmlns:xmpG="http://ns.adobe.com/xap/1.0/g/"
            xmlns:dc="http://purl.org/dc/elements/1.1/">
         <xmp:CreatorTool>Adobe Illustrator CC 23.0 (Macintosh)</xmp:CreatorTool>
         <xmp:CreateDate>2020-01-07T20:07:14+02:00</xmp:CreateDate>
         <xmp:Thumbnails>
            <rdf:Alt>
               <rdf:li rdf:parseType="Resource">
                  <xmpGImg:width>256</xmpGImg:width>
                  <xmpGImg:height>132</xmpGImg:height>
                  <xmpGImg:format>JPEG</xmpGImg:format>
                  <xmpGImg:image>/9j/4AAQSkZJRgABAgEASABIAAD/7QAsUGhvdG9zaG9wIDMuMAA4QklNA+0AAAAAABAASAAAAAEA&#xA;AQBIAAAAAQAB/+4ADkFkb2JlAGTAAAAAAf/bAIQABgQEBAUEBgUFBgkGBQYJCwgGBggLDAoKCwoK&#xA;DBAMDAwMDAwQDA4PEA8ODBMTFBQTExwbGxscHx8fHx8fHx8fHwEHBwcNDA0YEBAYGhURFRofHx8f&#xA;Hx8fHx8fHx8fHx8fHx8fHx8fHx8fHx8fHx8fHx8fHx8fHx8fHx8fHx8fHx8f/8AAEQgAhAEAAwER&#xA;AAIRAQMRAf/EAaIAAAAHAQEBAQEAAAAAAAAAAAQFAwIGAQAHCAkKCwEAAgIDAQEBAQEAAAAAAAAA&#xA;AQACAwQFBgcICQoLEAACAQMDAgQCBgcDBAIGAnMBAgMRBAAFIRIxQVEGE2EicYEUMpGhBxWxQiPB&#xA;UtHhMxZi8CRygvElQzRTkqKyY3PCNUQnk6OzNhdUZHTD0uIIJoMJChgZhJRFRqS0VtNVKBry4/PE&#xA;1OT0ZXWFlaW1xdXl9WZ2hpamtsbW5vY3R1dnd4eXp7fH1+f3OEhYaHiImKi4yNjo+Ck5SVlpeYmZ&#xA;qbnJ2en5KjpKWmp6ipqqusra6voRAAICAQIDBQUEBQYECAMDbQEAAhEDBCESMUEFURNhIgZxgZEy&#xA;obHwFMHR4SNCFVJicvEzJDRDghaSUyWiY7LCB3PSNeJEgxdUkwgJChgZJjZFGidkdFU38qOzwygp&#xA;0+PzhJSktMTU5PRldYWVpbXF1eX1RlZmdoaWprbG1ub2R1dnd4eXp7fH1+f3OEhYaHiImKi4yNjo&#xA;+DlJWWl5iZmpucnZ6fkqOkpaanqKmqq6ytrq+v/aAAwDAQACEQMRAD8A9U4q7FXYq7FXYq7FXYq7&#xA;FXYq7FXYq7FXYq7FXYq7FXYq7FXYq7FXYq7FXYq7FXYq7FXYq7FXYq7FXYq7FXYq7FXYq7FXYq7F&#xA;XYq7FXYq7FXYq7FXYq7FXYq7FXYq7FXYq7FXYq7FXYq7FXYq7FXYq7FXYq7FXYq7FXYq7FXYq7FX&#xA;Yq7FXYq7FXYq7FXYq7FXYq7FXYq7FXYq7FXYq7FXYq7FXYq7FXYq7FXYq7FXYq7FXYq7FXYq7FXY&#xA;q7FXYq7FXYq7FXYq7FXYq7FXYq7FXYq7FXYq7FXYq7FXYq7FXYq7FXYq7FXYq7FXYq7FXYq7FXYq&#xA;7FXYq7FXYq7FXYq7FXYq7FXYq7FXYq7FXYq7FXYq7FXYq7FXYq7FXYq7FXYq7FXYq7FXYq7FXYq7&#xA;FXYq7FXYq7FXYq7FXYq7FXYq7FXYq7FXYq7FXYq7FXYq7FXYq7FXYq7FXYq7FXYq7FXYq7FXYq7F&#xA;XYq7FXYq7FXYq7FXYq7FXYq7FXYq7FXYq7FXYq7FXYq7FXYq7FXYq7FXYq7FXYq7FXYq7FXYq7FX&#xA;Yq7FXYq7FXYq7FXYq7FXYq7FXYq7FXYq7FXYq7FXYq7FXYq7FXYq7FXYq7FXYq7FXYq7FXYq7FXY&#xA;q7FXYq7FXYq7FXYq7FXYq7FXYq7FXYq7FXYq7FXYq7FXYq7FXYq7FXYq7FXYq7FXYq7FXYq7FXYq&#xA;7FXYq7FXYq7FXYq7FXYq7FXYq7FXYq7FXYq7FXYq7FXYq7FXYq7FXYq7FXYq7FXYq7FXYq7FXYq7&#xA;FXYq7FXYq7FXYq7FXYq7FXYq7FXYq7FXYq7FXYq7FXYq7FXYq7FXYq7FXYq7FXYq7FXYq7FXYq7F&#xA;XYq7FXYq7FXYq7FXYq7FXYq7FXYq7FXYq7FXYq7FXYq7FXYq7FXYq7FXYq7FXYq7FXYq7FXYq7FX&#xA;Yq7FXYq7FXYq7FXYq7FXYq7FXYq7FXYq7FXYq7FXYq7FXYq7FXYq7FXYq7FXYq7FXYq7FXYq7FXY&#xA;q7FXYq7FXYq7FXYq7FXYq7FXYq7FXYq7FXYq7FXYq7FXYq7FXYq7FXYq7FXYq7FXYq7FXYq7FXYq&#xA;7FXYq7FXYq7FXYq7FXYq7FXYq7FXYq7FXYq7FXYq7FXYq7FXYq7FXYq7FXYq7FXYq7FXYq7FXYq7&#xA;FXYq7FXYq7FXYq7FXYq7FXYq7FXYq7FXYq7FXYq7FXYq7FXYq7FXYq7FXYq7FXYq7FXYq7FXYq7F&#xA;XYq7FXYq7FXYq7FXYq7FXYq7FXYq7FXYq7FXYq7FXYq7FXYq7FXYq7FXYq7FXYq7FXYq7FXYq7FX&#xA;Yq7FXYq7FXYq7FXYq7FXYq7FXYq7FXYq7FXYq7FXYq7FXYq7FX//2Q==</xmpGImg:image>
               </rdf:li>
            </rdf:Alt>
         </xmp:Thumbnails>
         <xmpTPg:MaxPageSize rdf:parseType="Resource">
            <stDim:w>100.000000</stDim:w>
            <stDim:h>51.045338</stDim:h>
            <stDim:unit>Pixels</stDim:unit>
         </xmpTPg:MaxPageSize>
         <xmpTPg:NPages>1</xmpTPg:NPages>
         <xmpTPg:HasVisibleTransparency>False</xmpTPg:HasVisibleTransparency>
         <xmpTPg:HasVisibleOverprint>False</xmpTPg:HasVisibleOverprint>
         <xmpTPg:SwatchGroups>
            <rdf:Seq>
               <rdf:li rdf:parseType="Resource">
                  <xmpG:groupName>Default Swatch Group</xmpG:groupName>
                  <xmpG:groupType>0</xmpG:groupType>
               </rdf:li>
            </rdf:Seq>
         </xmpTPg:SwatchGroups>
         <dc:format>image/svg+xml</dc:format>
      </rdf:Description>
   </rdf:RDF>
</x:xmpmeta>
                                                                                                    
                                                                                                    
                                                                                                    
                                                                                                    
                                                                                                    
                                                                                                    
                                                                                                    
                                                                                                    
                                                                                                    
                                                                                                    
                                                                                                    
                                                                                                    
                                                                                                    
                                                                                                    
                                                                                                    
                                                                                                    
                                                                                                    
                                                                                                    
                                                                                                    
                                                                                                    
                           
<?xpacket end="w"?>
	</metadata>
<g>
	<path class="st0" d="M100,51c-17,0-34.1,0-51.1,0c0-17,0-34,0-51C66,0,83,0,100,0C100,17,100,34,100,51z M56.9,40.9
		c0.9,1.2,2.1,1.9,3.5,2.1c0.7,0.1,1.4,0.2,2,0.1c2.9-0.1,5.1-1.8,5.7-4.5c0.2-1,0.3-2,0.2-3c-0.2-2.5-1.3-4.5-3.8-5.4
		c-1.5-0.6-3-0.6-4.5-0.3c-1.3,0.3-2.5,1-3.4,2.1c0-0.7,0-1.4,0-2.1c-1.4,0-2.8,0-4.1,0c0,5.8,0,11.5,0,17.3c1.4,0,2.8,0,4.2,0
		C56.9,45.1,56.9,43,56.9,40.9z M88.5,43.4c1.2-0.2,2.2-0.3,3.1-0.5c3.1-0.8,4.9-3.1,4.9-6.3c0-3.2-1.7-5.5-4.8-6.4
		c-1.6-0.5-3.2-0.5-4.9-0.3c-3.5,0.4-5.8,2.6-6.1,6c-0.3,2.9,0.9,5.7,4.2,6.8C86.2,43.1,87.4,43.2,88.5,43.4z M70.8,43
		c1.4,0,2.8,0,4.2,0c0-0.2,0-0.4,0-0.6c0-2.2,0-4.3,0-6.5c0-1.7,0.8-2.8,2.5-3c0.8-0.1,1.6,0,2.5,0c0-0.5,0-1.1,0-1.7
		c0-1.4,0-1.4-1.4-1.3c-1.7,0-2.9,0.7-3.6,2.3c0,0-0.1,0-0.1,0.1c0-0.8,0-1.5,0-2.2c-1.4,0-2.7,0-4.1,0C70.8,34.3,70.8,38.6,70.8,43
		z"/>
	<path class="st0" d="M5.3,42.9c-1.8,0-3.5,0-5.3,0c0-8.1,0-16.1,0-24.2c0.2,0,0.4,0,0.5,0c3.3,0,6.6,0,9.8,0c1.5,0,2.9,0.2,4.3,0.7
		c2.9,1,4.5,3.1,4.8,6.1c0.3,2.8-0.6,5.2-2.9,6.9c-0.2,0.2-0.5,0.3-0.8,0.5c-0.3,0.1-0.5,0.3-0.9,0.4c1.8,3.2,3.5,6.4,5.3,9.6
		c-0.4,0-0.8,0-1.2,0c-1.4,0-2.9,0-4.3,0c-0.4,0-0.6-0.1-0.7-0.4c-1.4-2.7-2.9-5.4-4.3-8.1C9.6,34.1,9.5,34,9.1,34
		c-1.3,0-2.5,0-3.9,0C5.3,37,5.3,39.9,5.3,42.9z M5.3,22.7c0,2.5,0,5.1,0,7.6c1.9,0,3.7,0.1,5.6,0c2.1-0.2,3.3-1.7,3.3-3.8
		c0-2-1.3-3.6-3.3-3.7C9,22.6,7.2,22.7,5.3,22.7z"/>
	<path class="st0" d="M40.6,33.7c-1,0-1.9,0-2.8,0c-0.9,0-1.8,0-2.7,0c0-1.3,0-2.4,0-3.7c3.5,0,7.1,0,10.6,0c0,0,0.1,0,0.1,0.1
		c0,2,0.1,3.9-0.4,5.8c-0.8,3.2-2.8,5.5-5.9,6.6c-3.3,1.2-6.7,1.1-10-0.1c-2.9-1.1-5-3.1-6.1-6.1c-1.4-3.6-1.4-7.3-0.1-11
		c1.5-4.1,4.5-6.3,8.7-7c2.8-0.5,5.6-0.2,8.2,1c2.7,1.3,4.6,3.4,5.3,6.4c0,0.1,0,0.2,0.1,0.3c0,0.1,0,0.2,0,0.3c-0.1,0-0.2,0-0.3,0
		c-1.5,0-3,0-4.5,0c-0.3,0-0.4,0-0.5-0.3c-1-2.5-3.3-3.9-6-3.7c-3,0.2-5,1.8-5.8,4.6c-0.8,2.7-0.7,5.4,0.3,8c1.6,4,6.8,5.3,10.2,2.7
		C40,36.8,40.6,35.4,40.6,33.7z"/>
	<path class="st0" d="M64.2,36.3c0,2.3-1.2,3.8-3.1,4c-2.7,0.3-4.4-1.6-4.1-4.5c0.4-3.2,3.4-3.9,5.3-2.9
		C63.7,33.7,64.1,35,64.2,36.3z"/>
	<path class="st0" d="M85.1,36.5c0-0.4,0-0.7,0.1-1c0.4-2.3,2.3-3.5,4.6-2.9c1.1,0.3,1.8,1,2.2,2c0.5,1.3,0.5,2.6,0,3.9
		c-0.5,1.4-1.6,2.1-3.2,2.1c-1.6,0-2.8-0.7-3.3-2.2c-0.1-0.3-0.2-0.6-0.2-0.9C85.1,37.2,85.1,36.8,85.1,36.5z"/>
</g>
</svg>
